<?xml version="1.0" encoding="utf-8"?>
<!-- Generator: Adobe Illustrator 25.2.1, SVG Export Plug-In . SVG Version: 6.00 Build 0)  -->
<svg version="1.1" id="Camada_1" xmlns="http://www.w3.org/2000/svg" xmlns:xlink="http://www.w3.org/1999/xlink" x="0px" y="0px"
	 viewBox="0 0 150 150" style="enable-background:new 0 0 150 150;" xml:space="preserve">
<style type="text/css">
	.st0{fill-rule:evenodd;clip-rule:evenodd;fill:#D7A19E;}
</style>
<g id="Grupo_1" transform="translate(-494.935 -383.616)">
	<path id="Caminho_1" class="st0" d="M589.5,498.9l-5,22.6l-9.4-6.7L589.5,498.9L589.5,498.9z"/>
	<path id="Caminho_2" class="st0" d="M570.3,497.5c-0.8-0.1-1.5-0.6-1.9-1.3c-0.6-1.4-0.7-2.9-0.5-4.4l-0.2-18.7
		c-2.6-2.3-4-5.8-3.8-9.3L549.5,490l-14.2-12.9l-1.3-13.3l22.6-7.6c-27.9,8.1-52.6,2.8-48.2-23.5c1.9-11-12.4-24.9-11.7-31.3
		c0.6-5,10.2-3.8,13.7-3.2c9.2,1.6,17.8,5.3,25.3,10.9c12.8,10.3,18.6,35.8,31.1,44.6c-4.2-11,11.4-11,7.2,0
		c12.5-8.8,18.3-34.3,31.1-44.6c7.5-5.5,16.1-9.2,25.3-10.9c3.5-0.6,13.1-1.8,13.7,3.2c0.8,6.5-13.5,20.3-11.7,31.3
		c4.5,26.3-20.2,31.6-48.2,23.5c9.3,3.1,20.1,5,27.6,11.1c8.5,7,9.6,14.9,2,23.8l-11.2,12.4l-11.4-13.6l-14.4-26.2
		c0.2,3.5-1.2,7-3.8,9.3l-0.2,18.7c0.2,1.5,0,3-0.5,4.4C571.9,496.9,571.1,497.4,570.3,497.5L570.3,497.5z"/>
	<path id="Caminho_3" class="st0" d="M560.8,505.5l-10.4-11.6l10.7-19.5L560.8,505.5z"/>
	<path id="Caminho_4" class="st0" d="M551.2,498.9l5,22.6l9.4-6.7L551.2,498.9L551.2,498.9z"/>
	<path id="Caminho_5" class="st0" d="M548,496.6l-12.5,13.8l16.9,6.3L548,496.6L548,496.6z"/>
	<path id="Caminho_6" class="st0" d="M548.2,492.4L533,478.6l-7.5,13.6l8.5,15.9L548.2,492.4z"/>
	<path id="Caminho_7" class="st0" d="M524.1,489.3c-8.9-10.4-5.9-19.5,7-27.4l1.2,12.5L524.1,489.3z"/>
	<path id="Caminho_8" class="st0" d="M592.7,495.9l8,9.7L588,519.1L592.7,495.9z"/>
	<path id="Caminho_9" class="st0" d="M579.8,505.5l10.5-11.6l-10.7-19.5L579.8,505.5z"/>
</g>
</svg>
