<?xml version="1.0" standalone="no"?>
<!DOCTYPE svg PUBLIC "-//W3C//DTD SVG 20010904//EN"
 "http://www.w3.org/TR/2001/REC-SVG-20010904/DTD/svg10.dtd">
<svg version="1.0" xmlns="http://www.w3.org/2000/svg"
 width="700.000000pt" height="700.000000pt" viewBox="0 0 700.000000 700.000000"
 preserveAspectRatio="xMidYMid meet">
<metadata>
Created by potrace 1.14, written by Peter Selinger 2001-2017
</metadata>
<g transform="translate(0.000000,700.000000) scale(0.100000,-0.100000)"
fill="#000000" stroke="none">
<path d="M355 6343 c-179 -17 -267 -79 -271 -191 -2 -98 48 -213 231 -527 169
-291 233 -422 280 -577 37 -121 50 -250 34 -333 -27 -132 -29 -380 -5 -500 44
-221 166 -414 338 -532 176 -122 319 -171 643 -222 60 -9 468 -7 535 3 19 3
55 8 80 11 158 20 267 40 438 81 57 13 107 24 110 23 7 0 -201 -71 -670 -228
-256 -86 -276 -94 -273 -114 2 -12 6 -56 9 -97 4 -41 8 -86 10 -100 5 -26 11
-91 22 -225 4 -44 8 -87 10 -95 1 -8 3 -29 3 -45 1 -33 18 -54 103 -127 30
-26 68 -60 84 -75 66 -62 271 -249 408 -372 38 -34 72 -58 76 -54 4 4 22 35
40 68 18 33 43 78 56 100 12 22 96 175 186 340 91 165 174 316 184 335 11 19
60 108 109 197 49 89 90 161 91 160 1 -1 3 -27 5 -57 5 -111 60 -244 134 -325
l41 -44 3 -288 c2 -158 4 -382 5 -498 1 -115 6 -227 10 -248 19 -86 103 -123
164 -72 47 40 55 89 57 385 2 146 4 368 5 494 l3 228 37 43 c81 94 128 202
137 317 l6 77 19 -37 c11 -20 30 -55 43 -77 23 -40 57 -103 123 -225 20 -36
66 -120 104 -187 37 -68 68 -125 68 -127 0 -2 20 -39 45 -80 25 -42 45 -78 45
-80 0 -2 51 -96 114 -209 85 -154 133 -229 192 -299 44 -51 81 -95 84 -98 5
-4 349 -418 358 -430 4 -5 50 42 182 190 114 127 179 199 277 306 79 86 163
193 192 243 131 230 149 419 58 613 -44 92 -87 152 -178 244 -194 198 -473
337 -959 479 -211 62 -261 77 -258 81 2 2 28 -3 58 -11 63 -17 290 -61 365
-70 28 -4 57 -8 65 -10 40 -10 223 -20 380 -20 261 0 411 21 602 85 254 85
438 237 541 445 39 79 60 144 81 255 17 89 15 340 -4 443 -12 65 -9 207 5 272
35 164 111 332 285 631 212 363 260 474 251 579 -11 120 -148 185 -378 179
-74 -2 -179 -11 -221 -19 -11 -2 -37 -6 -58 -9 -22 -4 -47 -9 -57 -12 -11 -3
-29 -7 -40 -9 -34 -4 -206 -52 -302 -85 -110 -37 -312 -124 -388 -167 -33 -18
-61 -33 -63 -33 -8 0 -196 -117 -265 -166 -185 -130 -364 -352 -561 -699 -81
-143 -107 -191 -228 -420 -110 -208 -175 -325 -222 -403 -21 -34 -38 -65 -38
-68 0 -2 -5 -10 -11 -17 -5 -7 -33 -48 -62 -92 -28 -44 -53 -82 -57 -85 -3 -3
-25 -31 -48 -62 -53 -69 -160 -180 -224 -232 l-48 -38 15 50 c61 203 -55 367
-231 330 -66 -14 -127 -76 -144 -147 -13 -54 -8 -137 10 -185 22 -58 5 -49
-101 51 -195 186 -328 391 -649 998 -155 294 -246 451 -348 600 -136 199 -274
344 -420 442 -48 32 -89 60 -92 63 -20 20 -266 150 -370 196 -147 65 -395 147
-509 169 -231 44 -382 59 -496 48z"/>
<path d="M1599 3289 c-492 -339 -600 -695 -333 -1094 69 -103 90 -127 102
-112 5 7 26 44 47 82 21 39 60 111 88 160 27 50 67 124 89 165 23 41 44 80 48
85 4 6 29 50 55 98 l47 89 -6 76 c-7 90 -15 175 -21 217 -2 17 -7 68 -11 115
-4 47 -8 94 -9 105 -1 11 -3 30 -4 43 0 12 -5 22 -9 22 -5 0 -42 -23 -83 -51z"/>
<path d="M3057 2708 c-13 -24 -52 -95 -87 -158 -35 -63 -74 -135 -88 -160 -13
-25 -40 -74 -60 -110 -19 -36 -80 -146 -134 -244 -82 -150 -96 -181 -86 -195
12 -15 157 -180 168 -191 3 -3 64 -70 135 -150 72 -80 138 -154 148 -164 9
-11 17 -18 18 -15 4 19 17 1429 13 1429 -2 0 -14 -19 -27 -42z"/>
<path d="M3955 2159 c2 -327 5 -650 5 -719 l0 -125 53 56 c28 31 88 96 132
145 87 97 157 174 222 244 23 25 51 56 62 69 l21 24 -47 86 c-25 47 -54 100
-63 116 -9 17 -97 176 -195 355 -98 179 -182 329 -186 334 -5 5 -7 -258 -4
-585z"/>
<path d="M1737 2498 c-19 -35 -48 -88 -64 -118 -71 -131 -97 -177 -119 -215
-30 -53 -90 -162 -111 -201 -16 -32 -15 -33 42 -140 32 -60 78 -147 103 -194
25 -47 73 -137 107 -200 34 -63 77 -144 95 -178 l33 -64 24 29 c14 15 57 64
97 108 40 44 122 134 181 200 60 66 147 163 195 215 48 52 104 115 125 139
l39 43 -65 62 c-36 33 -85 79 -110 100 -24 22 -87 79 -139 127 -52 48 -104 96
-116 106 -20 18 -134 120 -224 202 -25 22 -48 41 -52 41 -3 0 -22 -28 -41 -62z"/>
<path d="M4559 1754 c-1 -15 -9 -55 -35 -184 -15 -69 -28 -136 -30 -150 -3
-14 -13 -65 -24 -115 -10 -49 -21 -103 -24 -120 -3 -16 -8 -39 -10 -50 -14
-69 -56 -274 -60 -295 -2 -14 -11 -56 -20 -95 l-15 -70 61 65 c33 36 120 128
193 205 73 77 147 156 165 175 18 19 64 68 102 108 38 40 68 78 65 85 -7 19
-367 450 -368 441z"/>
<path d="M2458 1711 c-1 -5 -21 -29 -43 -53 -23 -24 -65 -70 -95 -103 -135
-149 -217 -240 -240 -265 -90 -98 -175 -194 -178 -200 -3 -9 -7 -7 168 -71 74
-27 144 -54 155 -59 11 -5 47 -19 80 -30 33 -12 69 -25 80 -30 11 -5 47 -18
80 -30 33 -12 95 -35 138 -51 l79 -29 -6 27 c-4 16 -8 37 -10 48 -3 11 -14 63
-26 115 -12 52 -23 102 -25 110 -3 16 -110 506 -126 583 -10 44 -23 60 -31 38z"/>
<path d="M2635 1585 c6 -38 6 -39 50 -235 54 -239 104 -471 110 -504 3 -16 8
-32 10 -36 2 -3 6 -19 9 -35 5 -25 26 -126 32 -147 1 -5 2 -14 3 -20 5 -41 19
-41 77 3 33 25 128 94 212 153 83 60 152 112 152 115 0 3 -10 18 -22 31 -13
14 -41 46 -63 71 -50 55 -203 225 -230 253 -11 12 -58 64 -105 116 -47 52
-104 115 -127 140 -22 25 -57 63 -77 85 l-36 40 5 -30z"/>
<path d="M4334 1534 c-38 -42 -77 -86 -87 -98 -10 -12 -35 -39 -55 -61 -99
-108 -154 -168 -232 -255 -47 -51 -106 -117 -132 -144 -25 -28 -55 -62 -66
-75 l-19 -25 215 -153 c151 -107 218 -149 223 -141 4 7 9 27 12 43 3 17 12 59
21 95 8 36 17 76 20 90 4 26 5 28 35 160 11 47 22 96 24 110 3 14 10 43 15 65
6 22 13 54 15 70 3 17 14 68 25 115 52 219 65 280 59 280 -2 0 -35 -34 -73
-76z"/>
</g>
</svg>
