<svg xmlns="http://www.w3.org/2000/svg" viewBox="0 0 400 96.8"><g fill="#f7e5e0"><path d="M204.568 84.217c0 .6.5 1.1 1.1 1.1.5 0 .9-.3 1.1-.8 2.4-5.6 5-11.4 7.7-17.2l2.4-5c5.4-.3 10-.9 13.3-1.5-.2.2-.4.5-.5.7-.6.7-.9 1.6-.9 2.5 0 .8.3 1.6.8 2.1l.2.2c1.2 1.1 3.5.5 5.3 0 2.4-.8 4.7-1.8 6.9-3l1.8-.9c1-.6 2-1.1 2.8-1.6l-2.6 3.4-.2.2c-.9 1.1-2 2.4-3 3.7-1.6 2-3.3 4.1-5 6.5l-1.7 2.4c-4.1 5.7-7.7 11.7-10.8 18-.2.6 0 1.2.5 1.5.6.2 1.2 0 1.5-.5 3.3-6.8 7.3-13.2 11.7-19.3l1.8-2.4c1.3-1.7 2.5-3.3 3.7-4.7 1.4-1.8 2.8-3.5 4.1-5 .6 1.4 1.9 2.2 3.4 2.1 3.5.2 7.9-1.8 11.7-3.8-.5 1.2-.2 2.5.6 3.5.6.6 1.5 1 2.4.9 2.4-.3 4.6-1.1 6.6-2.4.9-.5 1.8-1 2.6-1.6l1.1-.8v.2c-.2.7-.2 1.4 0 2.1.5 1.4 1.9 2.3 3.4 2.1 3.5.2 7.9-1.8 11.7-3.8-.2.7-.3 1.5-.1 2.2.5 1.6 2.1 2.2 4.1 2.2 2.8-.2 5.5-.8 8-1.8 1.9-.8 3.7-1.6 5.5-2.6l-.6.7c-.7.7-1.3 1.5-1.8 2.3-.8 1.2 1.1 2.1 1.9 1.1l1.5-1.8c5.5-4 11.8-6.5 18.5-7.6-1 1.1-1.8 2.3-2.5 3.2-.7.9-1.2 2-1.2 3.2 0 1.1.7 2.1 1.8 2.4.7.2 1.4.3 2.1.3 2.8-.1 5.6-.8 8.2-1.8 1.6-.6 3.2-1.3 4.7-2.2-.4 1-.6 2-.5 3.1.1 1.4 1.2 2.5 2.6 2.6 3.8.5 7.9-3.4 9.8-5.8.8-1.1 1.4-2.3 1.8-3.6l.1-.2c2.2.7 4.5 1 6.8 1 2.2 0 4.4-.3 6.6-.8.6-.2.9-.8.7-1.4-.3-.6-.9-.8-1.5-.7-2 .4-4 .7-6 .7-2.2.1-4.4-.4-6.4-1.2v-.1c-.1-1.1-.8-1.9-2.2-2.4-.2-.1-.5-.1-.8-.2-.8-.1-1.5.4-1.6 1.1l-.1-.1c-.4-.2-.9-.3-1.3-.2-1.9.9-3.6 2.1-5 3.7-.1 0-.2.1-.3.1-2.5 1.6-5.2 3-8 4.2-3.1 1.2-8.7 2.4-9 1.1 0-1.4 2.9-4.4 3.8-5.6.8-1.1.4-2.5-1-2.7-3.9-.5-11.4 2.3-15.2 4.2l2.1-2.4c.4-.5.3-1.2-.2-1.6-.5-.4-1.2-.4-1.6.1l-1.6 1.8c-.1 0-.3.1-.4.2-3.3 2-6.8 3.7-10.3 5.3-1.9.8-8 2.8-9.2 1.2-.6-.8 1.4-3.1 2.4-4.1l2.6-2.5.4-.4c.4-.5.3-1.2-.2-1.6-.5-.4-1.2-.4-1.6.1l-.1.1c-.8.7-1.6 1.5-2.4 2.2-.1 0-.1.1-.2.1-4.3 2.5-9.4 5.9-14.7 6.1-.5-.1-1.1-.2-1.3-.6 0-1.2.3-2.3 1.1-3.3.8-1.4 1.8-2.6 2.2-3.1.4-.5.3-1.2-.2-1.6-.5-.3-1.1-.3-1.5.1-2.5 2.7-5.4 5-8.6 6.8-1.3.9-2.8 1.5-4.3 1.9-1.3.4-1.8.2-2 0-.1-.2-.2-.5.1-1.3.4-1 .9-2 1.6-2.8.8-1 1.6-1.9 2.6-2.7.6-.5 1.2-.9 1.9-1.2.6-.1 1-.6.9-1.2v-.1c-.1-.6-.7-1-1.3-.9h-.1c-1 .4-2 .9-2.8 1.7-1 .8-1.8 1.7-2.6 2.7-4.1 2.5-8.9 5.4-14 5.7-.5-.1-1.1-.2-1.3-.6 0-1 .2-2 .8-2.9 1.5-1.5 2.7-3.3 3.7-5.1.2-.6-.1-1.3-.7-1.5-.5-.2-1 0-1.3.4l-.8 1-1.8 1.3h-.1l-.8-.3c-1.6-.6-3.3-.9-5-.8-2.3 0-4.5.4-6.6 1.2l-2.8.9c-5.1 1.1-10.3 1.8-15.5 2.1l2.1-4.2c2.9-5.6 5.8-10.9 8.5-15.8 3.6-6.6 6.9-12.1 9.7-16.3 1.3-2.1 2.4-3.7 3.4-5 .4-.7 1-1.3 1.6-1.9h.1l.2-.2c1.2-.8-.1-2.6-1.2-1.9l-.2.1v.1h-.2l-.1.1-46.8 35.4c-3.6 2.7-7.3 5.5-11 8.1l-22.9 16.6c-4.6 2.8-13.5 8.5-16.9 7.4-.7-.2-1.1.7-1 1.3 0 .6.6 1.1 1.2 1.1 4.4.5 13.3-4.9 17.8-7.8l23.5-17.1 14.2-10.6 36.7-27.6-.5.7c-2.8 4.2-6.1 9.9-9.8 16.5-2.8 4.9-5.6 10.3-8.5 16l-2.7 5.3h-2c-4.6 0-9.1-.3-13.6-1-1.3-.3-2.7.1-1.4 2.1 4.3 6.7 6.4 14.7 6.4 22.7zm-78.4-17.4c2.8 1.1 5.8 1.6 8.9 1.4 1.5 0 3.1-.1 4.6-.5 1.2-.1 2.4-.7 3.3-1.6.4-.6.2-1.4-.4-1.7h-.1c-1.5-.6-4.6-1.5-7.1-2.8-1-.4-2-1-2.8-1.8-.5-.5-.5-.8-.4-1.1l.5-.5c.5-.5.5-1.2 0-1.7-1-1.1-2.5.6-3.4 1.7-1.8.9-4.2 2-6.6 3h-.1l-.3.1c-1.1.4-2.1.8-3.2 1.2h-.2c-.4.2-.9.3-1.4.5l-.3.1c-.5.1-.9.3-1.4.4.3-.3.6-.6.8-1 .6-.7.9-1.6.9-2.5 0-.8-.3-1.6-.8-2.1l-.2-.2c-1.2-1.1-3.5-.5-5.3 0-2.4.8-4.7 1.8-6.9 3l-1.8.9c-1 .6-2 1.1-2.8 1.6l2.6-3.4.2-.2c.9-1.1 2-2.4 3-3.7 1.6-2 3.3-4.1 5-6.5l1.7-2.4c4.1-5.7 7.7-11.7 10.8-18 .2-.6 0-1.2-.5-1.5-.6-.3-1.2 0-1.5.5-3.3 6.8-7.3 13.2-11.7 19.3l-1.8 2.4c-1.3 1.7-2.5 3.3-3.7 4.7-.9 1.1-1.8 2.2-2.6 3.2-.1 0-.1.1-.2.1-1.1.6-4.2 2.6-7.6 4.4-1.4.8-8.8 4-13.1 4-1.3.2-2.5-.4-3.1-1.5-.2-1 0-2.1.5-3l.3-.5c3.1 1.5 10.8-3.1 11.8-5.1.3-.8.1-1.7-.6-2.2l-.6-.3c-2-.8-4.6-.1-6.8 1.1-2.3 1.3-4.3 3.1-5.7 5.3-.3.5-.6 1.1-.8 1.7h-.1l-10.1.6-.8.1 1.4-1.6c6.3-7.1 10.5-15 10.5-22.2 0-3.4-1-6.8-2.9-9.7-2.7-3.8-6.4-6.6-10.8-8.3l-2.4-.8c-3.9-1.2-8-1.7-12.1-1.7-17.1 0-36.9 8.6-43.7 23.1-1 2.1-1.5 4.4-1.5 6.8 0 7.4 5.3 13.7 13 13.7 1.2 0 2.4-.2 3.6-.5.6-.1 1-.8.8-1.4-.2-.6-.8-1-1.4-.8-.9.2-1.9.4-2.9.4-6 0-10.8-4.9-10.8-10.8v-.4c0-2.1.5-4.1 1.4-6 6.5-13.7 25.3-21.8 41.4-21.8 3.6 0 7.1.4 10.5 1.3-5.8 6.5-12.8 14.8-19.5 22.9-6.6 7.9-13 15.8-17.8 22.1l-2.4 3.1-2.7.9c-6 2.1-10.2 4.4-12.8 6.7-1.7 1.3-2.7 3.2-2.9 5.3 0 .7.2 1.5.5 2.1 1.2 2.5 5 3.6 9.7 3.6 1.9 0 3.9-.2 5.8-.5 9.1-1.4 17.9-4.4 25.9-8.9 6.8-3.7 13.1-8.3 18.8-13.6l.8-.8 3.4-.2 9.5-.6c0 .5.1 1 .2 1.5.8 2.1 2.8 2.9 5.3 2.9 4.9 0 11.4-2.8 14.2-4.2.8-.4 1.7-.9 2.4-1.3l-.2.3c-1.5 1.5-2.7 3.3-3.7 5.1-.2.6.1 1.3.7 1.5.5.2 1 0 1.3-.4l.8-1 1.8-1.3h.1l.8.3c1.6.6 3.3.9 5 .8.7 0 1.5 0 2.2-.1h.1l2.6-.3c3.4-.6 6.8-1.5 10.1-2.6 4.1-1.3 8-3 11.8-4.9.2.3.4.7.7.9 1.1 1 2.2 1.7 3.5 2.4 1.3.6 2.8 1.1 4.1 1.7l.5.2-.7.2c-3.7.5-7.5.2-11.1-1-.6-.2-1.2 0-1.5.5-.3.8-.1 1.5.5 1.9-.1-.1 0-.1 0 0zm-39-11.1c-1.5 1.6-6.4 4.3-7.9 3.7 1.9-1.8 4.9-4.1 7.9-3.7zm-27.1 7.1c-12.8.9-25.5 2.9-38 6.1.2-.2.3-.5.5-.7 4.7-6.2 11.1-14.1 17.7-22 7.2-8.7 14.5-17.2 20.2-23.7 4.2 1.4 7.9 4.1 10.5 7.7 1.6 2.5 2.5 5.4 2.4 8.3 0 7.7-5.2 16.4-12.9 24.1h-.1l-.3.2zm-47.9 16.7c-.1.7.4 1.2 1.1 1.3.4 0 .9-.2 1.1-.6l.2-.4c.6-1.3 1.4-2.6 2.3-3.7l3-4.2c11.8-3.2 23.9-5.4 36.1-6.4l2.1-.2-.5.4c-5.1 4.5-10.7 8.4-16.6 11.7-7.8 4.3-16.4 7.2-25.2 8.5-1.9.2-3.8.4-5.6.4-1.1 0-2.3-.1-3.4-.2-2.4-.4-3.6-1.2-4-2-.6-1.2-.3-2.8 1.9-4.8 2.1-2.1 5.9-4.1 11.5-6.1l-1.1 1.5c-1.1 1.4-2 2.9-2.7 4.6-.1 0-.2.1-.2.2zm101.9-20c.7 0 .8.1.8.2l.2.2c.2.5-.1 1.1-.4 1.5-1 1.3-2.3 2.3-3.8 3-2.4 1.2-5 1.8-7.6 1.8-.9 0-1.8-.1-2.7-.2l-.6-.2.2-.2c1.5-.9 3.3-1.9 5-2.8 2.1-1.1 4.3-2.1 6.6-2.8.8-.2 1.5-.4 2.3-.5zm185.7-9.8c.7 0 1.4.6 1.4 1.4 0 .7-.6 1.4-1.4 1.4s-1.4-.6-1.4-1.4c.1-.7.7-1.4 1.4-1.4zm-67.7 15.2c-.7 0-.8-.1-.8-.2l-.2-.2c-.2-.5.1-1.1.4-1.5 1-1.3 2.3-2.3 3.8-3 2.4-1.2 5-1.8 7.6-1.8.9 0 1.8.1 2.7.2l.6.2-.2.2c-1.5.9-3.3 1.9-5 2.8-2.1 1.1-4.3 2.1-6.6 2.8-.8.2-1.6.4-2.3.5zm118-3.3c-1.9 2.4-5.5 5.6-7.7 5-1.6-.5 0-4 1.8-6 1.4-1.6 3.1-2.8 5-3.7.1 0 .3-.1.4-.2l.2-.2c.5.8 1.2 1.4 2.1 1.8-.5 1.1-1 2.2-1.8 3.3zm-137.7 4.8c-1.9 4-3.7 7.8-5.3 11.7l-.5 1.1-.3-2.4c-.9-5-2.5-9.8-4.7-14.3l-.4-.7.6.1c3.8.5 7.7.8 11.6.8l.9.1-1.9 3.6z"/><path d="M302.468 34.117l3.9 1.5c.2.1.4.1.6 0 .2-.1.3-.3.4-.5.1-.1.1-.3.1-.5v-.6l.9.3v.1c0 .2 0 .4-.1.6 0 .2-.1.4-.1.6-.1.3-.2.5-.4.7-.2.2-.3.3-.6.4-.2.1-.4.1-.6.1-.2 0-.5-.1-.7-.2l-3.9-1.5-.5 1.3-.9-.4.5-1.3-1.7-.7.4-1 1.7.7.7-1.7.9.4-.6 1.7zm3.4-6.7c-.1-.3-.2-.7-.2-1 0-.5.1-.9.4-1.3 0-.1.1-.1.2-.2l.2-.2.1-.1.8.7-.1.1-.2.2c-.2.3-.3.6-.4.9v.8c.1.3.2.5.4.7.2.2.4.4.7.6l3.1 2-.6.9-4-2.6c-.1-.1-.3-.2-.4-.2-.2-.1-.3-.2-.5-.3-.2-.1-.3-.2-.4-.3-.1-.1-.2-.1-.3-.2l-.1-.1.6-.9h.1c.2.1.4.2.6.4v.1zm10.6-5.5c.1.4.1.7 0 1.1-.1.5-.4.9-.8 1.2-.2.2-.4.4-.7.5-.2.2-.5.3-.8.3-.6.1-1.2-.1-1.7-.5-.3-.3-.6-.7-.6-1.2 0-.4 0-.8.2-1.2.2-.4.4-.7.6-1.1.2-.3.5-.6.7-.9l.6-.6-.2-.2c-.3-.3-.7-.5-1.2-.4-.4.1-.8.3-1.1.7-.5.5-.8 1.2-.8 1.9v.1l-.9-.1v-.1c0-.5.1-.9.3-1.4.2-.4.4-.8.8-1.1.5-.5 1.1-.9 1.8-1 .7-.1 1.4.2 1.9.8l1.2 1.1.6.6.5.5c.2.1.3.3.5.4.2.1.3.2.4.3l.1.1-.7.7h-.1c-.2-.2-.4-.4-.6-.5zm2.2-8.3c0-.4.1-.7.2-1.1.2-.5.6-.9 1-1.1.4-.3.8-.4 1.2-.5.3 0 .7 0 1 .1.3.1.6.3.8.6.3.3.5.5.7.8l2.1 3.4-.9.6-2.1-3.3c-.1-.2-.3-.4-.5-.6-.2-.2-.3-.3-.5-.4-.2-.1-.4-.1-.6-.1-.3 0-.5.1-.7.3-.2.2-.5.4-.6.6-.2.2-.3.5-.3.8v.9c.1.4.3.7.5 1.1l1.8 2.8-.9.6-2.6-4c-.1-.1-.2-.2-.2-.4-.1-.1-.2-.3-.3-.4-.1-.1-.2-.3-.3-.4-.1-.1-.1-.2-.2-.3l-.1-.1.9-.6.1.1c.1.2.3.4.4.6 0-.1 0-.1.1 0zm10.5-1.4c.3.2.6.4 1 .4s.7 0 1.1-.1c.2-.1.3-.2.4-.3.1-.1.2-.2.3-.4.1-.1.1-.3.2-.4 0-.2 0-.3-.1-.5s-.2-.4-.5-.5c-.2-.1-.5-.1-.8-.1-.3 0-.6.1-.9.1-.3.1-.7.1-1 .1-.3 0-.6-.1-.9-.2-.3-.2-.6-.5-.7-.8-.1-.3-.2-.6-.1-.9 0-.3.1-.5.3-.8.1-.2.3-.4.6-.6.2-.2.5-.3.7-.4.5-.2 1-.3 1.4-.2.5 0 .9.2 1.2.6l.1.1-.7.9-.1-.1c-.2-.2-.5-.3-.8-.4-.3 0-.6 0-.9.1-.1.1-.3.1-.4.2l-.3.3c-.1.1-.1.2-.2.4v.4c.1.2.2.4.4.4.2.1.5.1.8 0 .3 0 .6-.1.9-.1.3-.1.7-.1 1-.1.3 0 .6.1.9.3.3.2.6.5.7.9.1.3.2.6.2.9 0 .3-.1.6-.3.8-.2.3-.4.5-.6.7-.2.2-.5.3-.8.5-.5.2-1.1.3-1.6.3s-1-.2-1.4-.6l-.1-.1 1-.8zm7.7-6.6l-1.3.2-.2-.9 1.3-.2-.4-2c-.1-.4-.1-.7 0-1.1.1-.3.2-.5.4-.8.2-.2.4-.4.6-.5.2-.1.4-.2.7-.2.3-.1.7-.1 1 0h.1v1h-.1c-.2-.1-.5-.1-.7 0-.9.2-.9 1.1-.7 1.8l.3 1.7 1.5-.3.2.9-1.5.3 1 5.7-1 .2-1.2-5.8zm6.6 1.4c0-.5.1-1 .3-1.4.2-.4.4-.8.8-1.1.3-.3.7-.6 1.1-.7.5-.2.9-.2 1.4-.2.5 0 1 .1 1.4.3.8.4 1.5 1 1.8 1.9.3.9.3 1.9-.1 2.8-.4.8-1 1.5-1.9 1.8-.5.2-.9.2-1.4.2-.5 0-1-.1-1.4-.3-.4-.2-.8-.4-1.1-.8-.3-.3-.5-.7-.7-1.1-.2-.5-.3-1-.2-1.4zm13.1-1.3c.3-.2.5-.4.9-.6.4-.2.9-.2 1.4-.1.1 0 .2 0 .3.1.1 0 .2.1.2.1h.1l-.4 1-.1-.1c-.1-.1-.2-.1-.3-.1-.3-.1-.6-.1-.9 0-.3 0-.5.2-.7.3-.2.2-.4.4-.5.6-.1.3-.3.5-.3.8l-.8 3.6-1-.2 1.1-4.7c0-.1.1-.3.1-.4 0-.2.1-.3.1-.5s.1-.3.1-.5c0-.1 0-.2.1-.4v-.1l1 .2v.1c0 .2-.1.5-.1.7-.3.1-.3.1-.3.2zm7.9 2.3c.3-.2.7-.3 1-.3.5-.1 1 .1 1.5.3.4.2.7.5.9.9.2.3.3.7.2 1.1.3-.3.8-.4 1.2-.4.5 0 .9.1 1.4.3.4.2.8.5 1 .8.2.3.3.6.4.9 0 .3 0 .7-.1 1-.1.3-.2.7-.4 1l-1.8 3.5-.9-.5 1.8-3.5c.1-.2.2-.5.3-.7.1-.2.1-.4.1-.7 0-.2-.1-.4-.2-.6-.2-.2-.4-.4-.6-.5-.3-.2-.6-.2-.9-.2-.3 0-.5.1-.7.2-.2.1-.4.3-.6.5-.2.2-.3.4-.4.6l-1.7 3.4-.9-.5 1.8-3.6c.2-.4.4-.9.4-1.4 0-.4-.3-.7-.6-.9-.3-.1-.5-.2-.8-.2-.3 0-.6 0-.8.1-.3.1-.6.3-.8.5-.3.3-.5.6-.7.9l-1.5 3-.9-.5 2.2-4.3c.1-.1.1-.3.2-.4.1-.2.1-.3.2-.5s.1-.3.2-.5c0-.1.1-.2.2-.3v-.1l.9.5v.1l-.3.6c-.2.3-.2.4-.3.4zm15.2 14.5l-3.7-3.6-2.7 1.1-.9-.8 10.3-4.3.8.8-3.9 10.3-.9-.9 1-2.6zm3.5 10.3l-.5-.1c.1.1.1.1.1.2.2.3.2.6.2.9 0 .3-.2.6-.5.8-.2.1-.4.2-.6.2-.2 0-.4-.1-.5-.2-.2-.1-.3-.2-.5-.4-.1-.1-.3-.3-.4-.5-.2-.4-.4-.9-.4-1.4v-.1l.7-.1v.1c0 .4.1.7.3 1 0 .1.1.2.2.2l.2.2c.1 0 .1.1.2.1s.2 0 .2-.1c.1-.1.2-.2.2-.4s-.1-.3-.1-.5c-.1-.2-.2-.3-.4-.5l.1-.4 1.2.1c-.2-.5-.3-1.1-.3-1.7 0-.6.1-1.2.3-1.8.2-.6.5-1.1.9-1.6s1-.9 1.5-1.2c.6-.4 1.3-.6 2-.7.7-.1 1.3-.1 2 .1s1.3.5 1.8.9c.6.5 1.1 1 1.4 1.7.3.6.6 1.2.6 1.9.1.7 0 1.4-.3 2v.1l-1.1-.4v-.1c.2-.5.3-1 .3-1.5s-.2-1-.5-1.4c-.3-.5-.7-1-1.1-1.3-.4-.3-.9-.6-1.4-.7-.5-.1-1.1-.1-1.6 0-1.1.2-2.2.8-3 1.7-.3.4-.6.9-.8 1.4-.2.5-.2 1.1-.1 1.6.1.6.3 1.1.6 1.7.3.5.6.9 1.1 1.2.2.2.5.3.8.4.3.1.6.2.9.2h.1l-.1 1.2h-.1c-.8-.1-1.5-.3-2.1-.8-.6-.4-1.1-1-1.4-1.6l-.1-.2c.1-.1.1-.1 0-.2zm7.3 12.5l-1.2-5-2.8-.5-.3-1.2 10.9 2 .2 1.1-9 6.5-.3-1.2 2.5-1.7zm7-6.6h.5c.2 0 .4.1.5.1.2.1.3.2.5.3.1.1.2.3.3.5 0 .2.1.4 0 .6 0 .2-.1.4-.1.6l-.1.5v.4c0 .1.1.3.3.3.1.1.3.1.5.1h.1l.2.7h-.6c-.2 0-.4-.1-.5-.1-.2-.1-.3-.2-.4-.3-.1-.1-.2-.3-.3-.5v-.6c0-.2.1-.4.1-.6 0-.2.1-.4.1-.5v-.4c0-.2-.1-.3-.3-.4-.1-.1-.3-.1-.5-.1h-.1l-.2-.7v.1zm-4 12.7c.7 0 1.4.2 2.1.5.6.3 1.2.7 1.6 1.2.4.5.8 1.1 1 1.7.4 1.4.3 2.9-.3 4.3-.3.6-.7 1.1-1.2 1.6-.5.4-1.1.8-1.8.9-1.4.4-2.9.3-4.3-.3-.6-.3-1.2-.7-1.6-1.2-.4-.5-.8-1.1-1-1.7-.4-1.4-.3-2.9.3-4.3.3-.6.7-1.1 1.2-1.6.5-.4 1.1-.8 1.8-.9.8-.2 1.5-.3 2.2-.2zm-78.8-31.2l-.6.6c-.2.2-.5.5-.7.8-.2.2-.3.5-.4.8-.1.2-.1.5-.1.7 0 .2.1.4.3.6.1.1.3.2.4.2h.5c.2 0 .3-.1.5-.2.1-.1.3-.2.4-.3.3-.3.5-.6.6-.9.1-.3.1-.5.1-.8 0-.3-.1-.5-.3-.7-.1-.2-.3-.4-.5-.6l-.2-.2zm29.8-13.2c0 .3 0 .7.1 1 .1.3.3.6.5.8.2.2.5.4.8.6.7.3 1.4.3 2.1.1.3-.1.6-.3.8-.5.2-.2.4-.5.5-.8.2-.6.3-1.4.1-2-.1-.3-.3-.6-.5-.8-.2-.2-.5-.4-.8-.6-.3-.1-.7-.2-1-.2-.4 0-.7 0-1 .2-.3.1-.6.3-.8.5-.2.2-.4.5-.5.8-.2.2-.3.5-.3.9zm37.6 9.2l-5.1 2.2 3.1 3 2-5.2zm13.8 25.2l-5.5-1 1 4.2 4.5-3.2zm-2.4 11.1c-.6 0-1.2 0-1.7.2-.5.1-1 .4-1.4.7-.4.3-.8.8-1 1.2-.5 1.1-.6 2.3-.3 3.4.2.5.4 1 .8 1.4.4.4.8.7 1.3.9 1.1.5 2.3.6 3.4.3.5-.1 1-.4 1.4-.7.4-.3.8-.8 1-1.2.5-1.1.6-2.3.3-3.4-.2-.5-.4-1-.8-1.4-.4-.4-.8-.7-1.3-.9-.6-.3-1.2-.5-1.7-.5z" fill-rule="evenodd" clip-rule="evenodd"/></g></svg>