<svg version="1.1" id="Camada_1" xmlns="http://www.w3.org/2000/svg" x="0" y="0" viewBox="0 0 150 150" xml:space="preserve"><style>.st0{fill-rule:evenodd;clip-rule:evenodd;fill:#d7a19e}</style><g id="Grupo_1" transform="translate(-494.935 -383.616)"><path id="Caminho_1" class="st0" d="M589.1 498l-5 22.6-9.4-6.7 14.4-15.9z"/><path id="Caminho_2" class="st0" d="M569.9 496.6c-.8-.1-1.5-.6-1.9-1.3-.6-1.4-.7-2.9-.5-4.4l-.2-18.7c-2.6-2.3-4-5.8-3.8-9.3l-14.4 26.2-14.2-12.9-1.3-13.3 22.6-7.6c-27.9 8.1-52.6 2.8-48.2-23.5 1.9-11-12.4-24.9-11.7-31.3.6-5 10.2-3.8 13.7-3.2 9.2 1.6 17.8 5.3 25.3 10.9 12.8 10.3 18.6 35.8 31.1 44.6-4.2-11 11.4-11 7.2 0 12.5-8.8 18.3-34.3 31.1-44.6 7.5-5.5 16.1-9.2 25.3-10.9 3.5-.6 13.1-1.8 13.7 3.2.8 6.5-13.5 20.3-11.7 31.3 4.5 26.3-20.2 31.6-48.2 23.5 9.3 3.1 20.1 5 27.6 11.1 8.5 7 9.6 14.9 2 23.8l-11.2 12.4-11.4-13.6-14.4-26.2c.2 3.5-1.2 7-3.8 9.3l-.2 18.7c.2 1.5 0 3-.5 4.4-.4.8-1.2 1.3-2 1.4z"/><path id="Caminho_3" class="st0" d="M560.4 504.6L550 493l10.7-19.5-.3 31.1z"/><path id="Caminho_4" class="st0" d="M550.8 498l5 22.6 9.4-6.7-14.4-15.9z"/><path id="Caminho_5" class="st0" d="M547.6 495.7l-12.5 13.8 16.9 6.3-4.4-20.1z"/><path id="Caminho_6" class="st0" d="M547.8 491.5l-15.2-13.8-7.5 13.6 8.5 15.9 14.2-15.7z"/><path id="Caminho_7" class="st0" d="M523.7 488.4c-8.9-10.4-5.9-19.5 7-27.4l1.2 12.5-8.2 14.9z"/><path id="Caminho_8" class="st0" d="M592.3 495l8 9.7-12.7 13.5 4.7-23.2z"/><path id="Caminho_9" class="st0" d="M579.4 504.6l10.5-11.6-10.7-19.5.2 31.1z"/></g></svg>