<svg version="1.1" id="Camada_1" xmlns="http://www.w3.org/2000/svg" x="0" y="0" viewBox="0 0 150 150" xml:space="preserve"><style>.st0{fill:#d7a19e}</style><g id="Grupo_45" transform="translate(249 1.049)"><path id="Caminho_60" class="st0" d="M-174 32.2c13.6 0 15.2.1 20.6.3 3.2 0 6.4.6 9.5 1.8 4.4 1.7 7.9 5.2 9.7 9.7 1.1 3 1.7 6.2 1.8 9.5.2 5.4.3 7 .3 20.6s-.1 15.2-.3 20.6c0 3.2-.6 6.4-1.8 9.5-1.7 4.4-5.2 7.9-9.7 9.7-3 1.1-6.2 1.7-9.5 1.8-5.4.2-7 .3-20.6.3-13.6 0-15.2-.1-20.6-.3-3.2 0-6.4-.6-9.5-1.8-4.4-1.7-7.9-5.2-9.7-9.7-1.1-3-1.7-6.2-1.8-9.5-.2-5.4-.3-7-.3-20.6s.1-15.2.3-20.6c0-3.2.6-6.4 1.8-9.5 1.7-4.4 5.2-7.9 9.7-9.7 3-1.1 6.2-1.7 9.5-1.8 5.4-.2 7-.3 20.6-.3m0-9.2c-13.8 0-15.6.1-21 .3-4.2.1-8.4.9-12.4 2.4-6.8 2.6-12.2 8-14.9 14.9-1.5 4-2.3 8.1-2.4 12.4-.2 5.4-.3 7.2-.3 21s.1 15.6.3 21c.1 4.2.9 8.4 2.4 12.4 2.6 6.8 8 12.2 14.9 14.9 4 1.5 8.1 2.3 12.4 2.4 5.4.2 7.2.3 21 .3s15.6-.1 21-.3c4.2-.1 8.4-.9 12.4-2.4 6.8-2.6 12.2-8.1 14.9-14.9 1.5-4 2.3-8.1 2.4-12.4.2-5.4.3-7.2.3-21s-.1-15.6-.3-21c-.1-4.2-.9-8.4-2.4-12.4-2.6-6.8-8.1-12.2-14.9-14.9-4-1.5-8.1-2.3-12.4-2.4-5.4-.2-7.2-.3-21-.3z"/><path id="Caminho_61" class="st0" d="M-174 47.8c-14.4 0-26.1 11.7-26.1 26.1S-188.4 100-174 100s26.1-11.7 26.1-26.1c0-14.4-11.7-26.1-26.1-26.1zm0 43.1c-9.4 0-17-7.6-17-17s7.6-17 17-17 17 7.6 17 17-7.6 17-17 17z"/><ellipse id="Elipse_1" class="st0" cx="-146.8" cy="46.8" rx="6.1" ry="6.1"/></g></svg>