<svg xmlns="http://www.w3.org/2000/svg" viewBox="0 0 400 400"><path d="M271.2 361.1l53.2-47.1c29.6-26.2 43-66.3 35-105l-14.6-71c-7.9-38.5-35.7-69.8-72.9-82.4l-68.7-23.2c-37.5-12.7-78.9-4.3-108.5 21.9l-53.2 47.1c-29.6 26.2-43 66.3-35 105l14.6 71c7.9 38.5 35.7 69.8 72.9 82.4l68.7 23.2c37.5 12.7 78.9 4.4 108.5-21.9z" fill="#f7e5e0"/><path d="M82.1 322.8c-7.6-10.4-13-22.2-15.8-34.7l-20.4-89.6c-7.5-33 2.6-68.7 26.3-93.2l64.5-66.5c23.7-24.5 57.9-34.4 89.1-25.9L310.7 36c31.2 8.5 55.3 34.3 62.8 67.2l20.4 89.6c7.5 33-2.6 68.7-26.3 93.2L303 352.5c-23.7 24.5-57.9 34.4-89.1 25.9l-84.8-23.1c-18.9-5.1-35.5-16.6-47-32.5zM354.5 71.2c-11-15.1-26.9-26.1-44.9-31.1L224.7 17c-29.9-8.1-62.5 1.4-85.2 24.8L75 108.3c-22.7 23.4-32.3 57.5-25.2 89L70.2 287c7.2 31.5 30.2 56.1 60 64.3l84.8 23.1c29.9 8.1 62.5-1.4 85.2-24.8l64.5-66.5c22.7-23.4 32.3-57.5 25.2-89l-20.4-89.6c-2.6-12.1-7.8-23.4-15-33.3z" fill="#fff"/></svg>