<svg version="1.1" id="Camada_1" xmlns="http://www.w3.org/2000/svg" x="0" y="0" viewBox="0 0 400 400" xml:space="preserve"><style>.st0{fill:#f7e5e0}.st1{fill:#fff}.st2{fill:#d7a19e}</style><g id="Grupo_48" transform="translate(8.88 -7.684)"><path id="Caminho_23" class="st0" d="M272.2 360.8l52.3-46.2c29.1-25.8 42.2-65.1 34.4-103.2l-14.4-69.8c-7.8-37.8-35-68.6-71.6-80.9l-67.5-22.8c-36.8-12.4-77.5-4.2-106.6 21.6l-52.3 46.2c-29.1 25.8-42.2 65.1-34.4 103.2l14.4 69.8c7.8 37.8 35 68.6 71.6 80.9l67.5 22.8c36.8 12.4 77.5 4.2 106.6-21.6z"/><path id="Caminho_26" class="st1" d="M75.8 321c-7.5-10.2-12.7-21.8-15.5-34.1l-20-88c-7.2-32.9 2.5-67.3 25.9-91.6l63.4-65.4c23.3-24.1 56.9-33.8 87.6-25.5l83.4 22.7c30.7 8.3 54.3 33.7 61.7 66.1l20 88c7.2 32.9-2.5 67.3-25.9 91.6L293 350.1c-23.3 24.1-56.9 33.8-87.6 25.5L122 352.9c-18.5-5.1-34.8-16.3-46.2-31.9zM343.5 73.7c-10.8-14.9-26.4-25.6-44.1-30.5L216 20.5c-29.3-8-61.4 1.3-83.7 24.3l-63.4 65.4c-22.4 23.2-31.6 56-24.7 87.5l20 88c7 31 29.6 55.2 59 63.1l83.4 22.7c29.3 8 61.4-1.4 83.7-24.3l63.4-65.4c22.4-23.2 31.6-56 24.7-87.5l-20-88c-2.7-11.7-7.7-22.9-14.9-32.6z"/><g id="Grupo_38" transform="rotate(-22 835.158 -405.716)"><path id="Caminho_39" class="st0" d="M95.4 139l-9.5-2.4-7.3 6.5-.7-9.8-8.4-5 9.1-3.7 2.1-9.6 6.3 7.5 9.7-.9-5.2 8.3 3.9 9.1z"/><path id="Caminho_40" class="st0" d="M133.8 117.3l-6.7-1.7-5.2 4.6-.5-6.9-5.9-3.5 6.4-2.6 1.5-6.7 4.4 5.3 6.8-.7-3.6 5.9 2.8 6.3z"/><path id="Caminho_41" class="st0" d="M34.6 141.9l5.1-4.6 6.7 1.6-2.8-6.3 3.6-5.9-6.8.7-4.4-5.3-1.5 6.7-6.4 2.6 5.9 3.5.6 7z"/></g><g id="Grupo_40" transform="rotate(-10.02 1184.368 -377.959)"><path id="Caminho_50" class="st2" d="M65.8 97.6c-1.9 16-14 27.5-34.5 25.1L17.1 121 24 63.5l14.2 1.7c20.4 2.4 29.5 16.4 27.6 32.4zm-5.9-.7c1.8-15.2-6.6-25.3-23.3-27.3l-7.7-.9-5.8 48.5 7.7.9c16.7 1.9 27.3-6 29.1-21.2z"/><path id="Caminho_51" class="st2" d="M79.2 74.4c.3-2.3 2.3-3.9 4.6-3.6 2.3.3 3.9 2.3 3.6 4.6-.3 2.3-2.3 3.9-4.6 3.6-2.3-.3-3.9-2.3-3.6-4.6zm-.1 13.5l5.2.6-4.8 39.9-5.2-.6 4.8-39.9z"/><path id="Caminho_52" class="st2" d="M133.5 94.1l-4.8 40.1-4.4-.5.1-7.6c-3.8 5-9.9 7.6-16.1 6.7-10.5-1.3-17.7-10.4-16.2-23.2s10.7-20 21.2-18.7c6.2.6 11.6 4.5 14.1 10.3l1.7-7.6 4.4.5zm-7 19.6c1.1-9.2-3.9-17-12.6-18.1-8.5-1-15.1 5.4-16.2 14.6s3.8 17 12.3 18c8.6 1.1 15.4-5.3 16.5-14.5z"/><path id="Caminho_53" class="st2" d="M143.7 126.9c2.1 3.8 5.9 6.3 10.2 6.6 5.9.7 9.4-1.4 9.8-5.3 1.1-9.5-21.1-7.8-19.5-21.8.8-6.9 6.8-10.9 15.1-10 4.7.4 9 2.7 12 6.4l-3.8 3.1c-2.1-2.7-5.3-4.5-8.7-4.8-5.3-.6-8.6 1.8-9 5.6-1.2 10.2 21.2 8.1 19.6 21.9-.8 7-7.3 10.6-16 9.5-7-.8-12.2-4.5-14.2-8.6l4.5-2.6z"/></g><g id="Grupo_41" transform="matrix(.985 -.174 .174 .985 107.814 78.7)"><path id="Caminho_54" class="st2" d="M130.9 42.9l-2.3 19-68.3 108.8-30.8-3.7L97.4 63.4l-67.5-8 2.9-24.1 98.1 11.6z"/></g><g id="Grupo_42" transform="rotate(-32 99.707 64.008)"><path id="Caminho_55" class="st1" d="M51.2 42.6L42 39.4l-7.9 5.8.2-9.8-7.9-5.7 9.4-2.8 3-9.3 5.6 8h9.8l-5.9 7.8 2.9 9.2z"/><path id="Caminho_56" class="st1" d="M94.6 45.5l-6.5-2.3-5.5 4.1.1-6.9-5.6-4 6.6-2 2.1-6.6 3.9 5.7h6.9L92.4 39l2.2 6.5z"/><path id="Caminho_57" class="st1" d="M-6.4 60.8l5.5-4.1L5.7 59l-2.2-6.5L7.6 47H.7l-3.9-5.6-2.1 6.6-6.6 2 5.6 4-.1 6.8z"/></g></g></svg>